<?xml version="1.0" encoding="UTF-8" standalone="no"?>
<!-- Generator: Adobe Illustrator 22.0.0, SVG Export Plug-In . SVG Version: 6.00 Build 0)  -->

<svg
   xmlns:dc="http://purl.org/dc/elements/1.1/"
   xmlns:cc="http://creativecommons.org/ns#"
   xmlns:rdf="http://www.w3.org/1999/02/22-rdf-syntax-ns#"
   xmlns:svg="http://www.w3.org/2000/svg"
   xmlns="http://www.w3.org/2000/svg"
   xmlns:sodipodi="http://sodipodi.sourceforge.net/DTD/sodipodi-0.dtd"
   xmlns:inkscape="http://www.inkscape.org/namespaces/inkscape"
   version="1.1"
   id="Layer_1"
   x="0px"
   y="0px"
   viewBox="0 0 18 18"
   style="enable-background:new 0 0 18 18;"
   xml:space="preserve"
   sodipodi:docname="iconwhite.svg"
   inkscape:version="0.92.4 (5da689c313, 2019-01-14)"><metadata
   id="metadata184"><rdf:RDF><cc:Work
       rdf:about=""><dc:format>image/svg+xml</dc:format><dc:type
         rdf:resource="http://purl.org/dc/dcmitype/StillImage" /><dc:title></dc:title></cc:Work></rdf:RDF></metadata><defs
   id="defs182" /><sodipodi:namedview
   pagecolor="#ffffff"
   bordercolor="#666666"
   borderopacity="1"
   objecttolerance="10"
   gridtolerance="10"
   guidetolerance="10"
   inkscape:pageopacity="0"
   inkscape:pageshadow="2"
   inkscape:window-width="1920"
   inkscape:window-height="1057"
   id="namedview180"
   showgrid="false"
   inkscape:zoom="13.111111"
   inkscape:cx="18.856728"
   inkscape:cy="9"
   inkscape:window-x="-8"
   inkscape:window-y="-8"
   inkscape:window-maximized="1"
   inkscape:current-layer="g146" />
<style
   type="text/css"
   id="style2">
	.st0{display:none;}
	.st1{display:inline;opacity:0.5;}
	.st2{fill:#6FCBDC;}
	.st3{display:inline;}
	.st4{opacity:0.5;fill:none;stroke:#A8A7A8;stroke-width:0.05;stroke-miterlimit:10;enable-background:new    ;}
	.st5{fill:none;stroke:#A8A7A8;stroke-width:0.05;stroke-miterlimit:10;}
	.st6{display:inline;opacity:0.5;fill:none;stroke:#6FCBDC;stroke-width:0.2;stroke-miterlimit:10;enable-background:new    ;}
	.st7{enable-background:new    ;}
	.st8{fill:#4C6A8D;}
</style>
<g
   id="Grid"
   class="st0">
	<g
   class="st1"
   id="g6">
		<path
   class="st2"
   d="M18.8-0.8L18.8-0.8v19.6H-0.8V-0.8H18.8 M19-1H-1v20h20V-0.7V-1L19-1z"
   id="path4" />
	</g>
	<g
   class="st3"
   id="g102">
		<line
   class="st4"
   x1="-2"
   y1="-3"
   x2="-2"
   y2="21"
   id="line8" />
		<line
   class="st4"
   x1="-1"
   y1="-3"
   x2="-1"
   y2="21"
   id="line10" />
		<line
   class="st4"
   x1="0"
   y1="-3"
   x2="0"
   y2="21"
   id="line12" />
		<line
   class="st4"
   x1="1"
   y1="-3"
   x2="1"
   y2="21"
   id="line14" />
		<line
   class="st4"
   x1="2"
   y1="-3"
   x2="2"
   y2="21"
   id="line16" />
		<line
   class="st4"
   x1="3"
   y1="-3"
   x2="3"
   y2="21"
   id="line18" />
		<line
   class="st4"
   x1="4"
   y1="-3"
   x2="4"
   y2="21"
   id="line20" />
		<line
   class="st4"
   x1="5"
   y1="-3"
   x2="5"
   y2="21"
   id="line22" />
		<line
   class="st4"
   x1="6"
   y1="-3"
   x2="6"
   y2="21"
   id="line24" />
		<line
   class="st4"
   x1="7"
   y1="-3"
   x2="7"
   y2="21"
   id="line26" />
		<line
   class="st4"
   x1="8"
   y1="-3"
   x2="8"
   y2="21"
   id="line28" />
		<line
   class="st4"
   x1="9"
   y1="-3"
   x2="9"
   y2="21"
   id="line30" />
		<line
   class="st4"
   x1="10"
   y1="-3"
   x2="10"
   y2="21"
   id="line32" />
		<line
   class="st4"
   x1="11"
   y1="-3"
   x2="11"
   y2="21"
   id="line34" />
		<line
   class="st4"
   x1="12"
   y1="-3"
   x2="12"
   y2="21"
   id="line36" />
		<line
   class="st4"
   x1="13"
   y1="-3"
   x2="13"
   y2="21"
   id="line38" />
		<line
   class="st4"
   x1="14"
   y1="-3"
   x2="14"
   y2="21"
   id="line40" />
		<line
   class="st4"
   x1="15"
   y1="-3"
   x2="15"
   y2="21"
   id="line42" />
		<line
   class="st4"
   x1="16"
   y1="-3"
   x2="16"
   y2="21"
   id="line44" />
		<line
   class="st4"
   x1="17"
   y1="-3"
   x2="17"
   y2="21"
   id="line46" />
		<line
   class="st4"
   x1="18"
   y1="-3"
   x2="18"
   y2="21"
   id="line48" />
		<line
   class="st4"
   x1="19"
   y1="-3"
   x2="19"
   y2="21"
   id="line50" />
		<line
   class="st4"
   x1="20"
   y1="-3"
   x2="20"
   y2="21"
   id="line52" />
		<line
   class="st4"
   x1="21"
   y1="-2"
   x2="-3"
   y2="-2"
   id="line54" />
		<line
   class="st4"
   x1="21"
   y1="-1"
   x2="-3"
   y2="-1"
   id="line56" />
		<line
   class="st4"
   x1="21"
   y1="0"
   x2="-3"
   y2="0"
   id="line58" />
		<line
   class="st4"
   x1="21"
   y1="1"
   x2="-3"
   y2="1"
   id="line60" />
		<line
   class="st4"
   x1="21"
   y1="2"
   x2="-3"
   y2="2"
   id="line62" />
		<line
   class="st4"
   x1="21"
   y1="3"
   x2="-3"
   y2="3"
   id="line64" />
		<line
   class="st4"
   x1="21"
   y1="4"
   x2="-3"
   y2="4"
   id="line66" />
		<line
   class="st4"
   x1="21"
   y1="5"
   x2="-3"
   y2="5"
   id="line68" />
		<line
   class="st4"
   x1="21"
   y1="6"
   x2="-3"
   y2="6"
   id="line70" />
		<line
   class="st4"
   x1="21"
   y1="7"
   x2="-3"
   y2="7"
   id="line72" />
		<line
   class="st4"
   x1="21"
   y1="8"
   x2="-3"
   y2="8"
   id="line74" />
		<line
   class="st4"
   x1="21"
   y1="9"
   x2="-3"
   y2="9"
   id="line76" />
		<line
   class="st4"
   x1="21"
   y1="10"
   x2="-3"
   y2="10"
   id="line78" />
		<line
   class="st4"
   x1="21"
   y1="11"
   x2="-3"
   y2="11"
   id="line80" />
		<line
   class="st4"
   x1="21"
   y1="12"
   x2="-3"
   y2="12"
   id="line82" />
		<line
   class="st4"
   x1="21"
   y1="13"
   x2="-3"
   y2="13"
   id="line84" />
		<line
   class="st4"
   x1="21"
   y1="14"
   x2="-3"
   y2="14"
   id="line86" />
		<line
   class="st4"
   x1="21"
   y1="15"
   x2="-3"
   y2="15"
   id="line88" />
		<line
   class="st4"
   x1="21"
   y1="16"
   x2="-3"
   y2="16"
   id="line90" />
		<line
   class="st4"
   x1="21"
   y1="17"
   x2="-3"
   y2="17"
   id="line92" />
		<line
   class="st4"
   x1="21"
   y1="18"
   x2="-3"
   y2="18"
   id="line94" />
		<line
   class="st4"
   x1="21"
   y1="19"
   x2="-3"
   y2="19"
   id="line96" />
		<line
   class="st4"
   x1="21"
   y1="20"
   x2="-3"
   y2="20"
   id="line98" />
		<rect
   x="-3"
   y="-3"
   class="st5"
   width="24"
   height="24"
   id="rect100" />
	</g>
	<line
   class="st6"
   x1="-3"
   y1="-3"
   x2="21"
   y2="21"
   id="line104" />
	<line
   class="st6"
   x1="21"
   y1="-3"
   x2="-3"
   y2="21"
   id="line106" />
	<line
   class="st6"
   x1="-3"
   y1="9"
   x2="21"
   y2="9"
   id="line108" />
	<line
   class="st6"
   x1="-3"
   y1="3"
   x2="21"
   y2="3"
   id="line110" />
	<line
   class="st6"
   x1="-3"
   y1="14"
   x2="21"
   y2="14"
   id="line112" />
	<circle
   class="st6"
   cx="9"
   cy="9"
   r="10"
   id="circle114" />
	<line
   class="st6"
   x1="15"
   y1="-3"
   x2="15"
   y2="21"
   id="line116" />
	<line
   class="st6"
   x1="3"
   y1="-3"
   x2="3"
   y2="21"
   id="line118" />
	<line
   class="st6"
   x1="9"
   y1="-3"
   x2="9"
   y2="21"
   id="line120" />
</g>
<g
   id="Delay">
</g>
<g
   id="App_integration">
</g>
<g
   id="Active_directory">
</g>
<g
   id="Record">
</g>
<g
   id="Clipboard">
</g>
<g
   id="Comment">
</g>
<g
   id="Database">
</g>
<g
   id="Wait">
</g>
<g
   id="Web_service_-_soap">
</g>
<g
   id="Web_service_-_rest">
</g>
<g
   id="Service">
</g>
<g
   id="Keyboard">
</g>
<g
   id="SNMP">
</g>
<g
   id="OCR">
</g>
<g
   id="Launch_site">
</g>
<g
   id="xml">
</g>
<g
   id="OCR_1_">
</g>
<g
   id="g152">
	<g
   class="st7"
   id="g146"
   style="fill:#4c6a8d;fill-opacity:1">
		
		
		
	<text
   xml:space="preserve"
   style="font-style:normal;font-weight:normal;font-size:17.33333397px;line-height:1.25;font-family:Verdana;letter-spacing:0px;word-spacing:0px;fill:#4c6a8d;fill-opacity:1;stroke:none;-inkscape-font-specification:Verdana;font-stretch:normal;font-variant:normal"
   x="4.5762711"
   y="7.7796612"
   id="text993"><tspan
     sodipodi:role="line"
     id="tspan991"
     x="4.5762711"
     y="23.593388"
     style="font-style:normal;font-variant:normal;font-weight:normal;font-stretch:normal;font-family:Verdana;-inkscape-font-specification:Verdana;fill:#4c6a8d;fill-opacity:1" /></text>
<text
   xml:space="preserve"
   style="font-style:normal;font-weight:normal;font-size:17.33333397px;line-height:1.25;font-family:sans-serif;letter-spacing:0px;word-spacing:0px;fill:#4c6a8d;fill-opacity:1;stroke:none"
   x="5.3389831"
   y="2.0593221"
   id="text997"><tspan
     sodipodi:role="line"
     id="tspan995"
     x="5.3389831"
     y="17.873049"></tspan></text>
<text
   xml:space="preserve"
   style="font-style:normal;font-weight:normal;font-size:17.33333397px;line-height:1.25;font-family:sans-serif;letter-spacing:0px;word-spacing:0px;fill:#4c6a8d;fill-opacity:1;stroke:none"
   x="0.38135749"
   y="12.889831"
   id="text1001"><tspan
     sodipodi:role="line"
     id="tspan999"
     x="0.38135749"
     y="12.889831"
     style="font-style:normal;font-variant:normal;font-weight:bold;font-stretch:normal;font-size:10.66666698px;font-family:Arial;-inkscape-font-specification:'Arial, Bold';font-variant-ligatures:normal;font-variant-caps:normal;font-variant-numeric:normal;font-feature-settings:normal;text-align:start;writing-mode:lr-tb;text-anchor:start;fill:#ffffff;fill-opacity:1">IQ+</tspan></text>
</g>
	
	
</g>
<g
   id="window">
</g>
<g
   id="OPERATIONS">
</g>
<g
   id="VARIABLES">
</g>
<g
   id="Javascript">
</g>
<g
   id="JAva">
</g>
<g
   id="VBS">
</g>
<g
   id="Python">
</g>
<g
   id="Terminal">
</g>
<g
   id="Sound">
</g>
<g
   id="Screen_cap">
</g>
<g
   id="Print">
</g>
<g
   id="Prompt">
</g>
<g
   id="Read">
</g>
<g
   id="SAP_1_">
</g>
<g
   id="PGP">
</g>
<g
   id="System">
</g>
<g
   id="PDF">
</g>
<g
   id="command">
</g>
<g
   id="Message_box">
</g>
<g
   id="FTP">
</g>
<g
   id="Folder">
</g>
<g
   id="File">
</g>
<g
   id="Excel">
</g>
<g
   id="device">
</g>
<g
   id="email">
</g>
</svg>