<svg xmlns="http://www.w3.org/2000/svg" xmlns:svg="http://www.w3.org/2000/svg" style="enable-background:new 0 0 18 18" id="Layer_1" x="0" y="0" version="1.1" viewBox="0 0 18 18" xml:space="preserve"><metadata id="metadata184"/><style id="style2" type="text/css">.st0{display:none}.st1{display:inline;opacity:.5}.st2{fill:#6fcbdc}.st3{display:inline}.st4{opacity:.5;enable-background:new}.st4,.st5,.st6{fill:none;stroke:#a8a7a8;stroke-width:.05;stroke-miterlimit:10}.st6{display:inline;opacity:.5;stroke:#6fcbdc;stroke-width:.2}.st6,.st7{enable-background:new}</style><g id="Grid" class="st0"><g id="g6" class="st1"><path id="path4" d="M18.8-0.8L18.8-0.8v19.6H-0.8V-0.8H18.8 M19-1H-1v20h20V-0.7V-1L19-1z" class="st2"/></g><g id="g102" class="st3"><line id="line8" x1="-2" x2="-2" y1="-3" y2="21" class="st4"/><line id="line10" x1="-1" x2="-1" y1="-3" y2="21" class="st4"/><line id="line12" x1="0" x2="0" y1="-3" y2="21" class="st4"/><line id="line14" x1="1" x2="1" y1="-3" y2="21" class="st4"/><line id="line16" x1="2" x2="2" y1="-3" y2="21" class="st4"/><line id="line18" x1="3" x2="3" y1="-3" y2="21" class="st4"/><line id="line20" x1="4" x2="4" y1="-3" y2="21" class="st4"/><line id="line22" x1="5" x2="5" y1="-3" y2="21" class="st4"/><line id="line24" x1="6" x2="6" y1="-3" y2="21" class="st4"/><line id="line26" x1="7" x2="7" y1="-3" y2="21" class="st4"/><line id="line28" x1="8" x2="8" y1="-3" y2="21" class="st4"/><line id="line30" x1="9" x2="9" y1="-3" y2="21" class="st4"/><line id="line32" x1="10" x2="10" y1="-3" y2="21" class="st4"/><line id="line34" x1="11" x2="11" y1="-3" y2="21" class="st4"/><line id="line36" x1="12" x2="12" y1="-3" y2="21" class="st4"/><line id="line38" x1="13" x2="13" y1="-3" y2="21" class="st4"/><line id="line40" x1="14" x2="14" y1="-3" y2="21" class="st4"/><line id="line42" x1="15" x2="15" y1="-3" y2="21" class="st4"/><line id="line44" x1="16" x2="16" y1="-3" y2="21" class="st4"/><line id="line46" x1="17" x2="17" y1="-3" y2="21" class="st4"/><line id="line48" x1="18" x2="18" y1="-3" y2="21" class="st4"/><line id="line50" x1="19" x2="19" y1="-3" y2="21" class="st4"/><line id="line52" x1="20" x2="20" y1="-3" y2="21" class="st4"/><line id="line54" x1="21" x2="-3" y1="-2" y2="-2" class="st4"/><line id="line56" x1="21" x2="-3" y1="-1" y2="-1" class="st4"/><line id="line58" x1="21" x2="-3" y1="0" y2="0" class="st4"/><line id="line60" x1="21" x2="-3" y1="1" y2="1" class="st4"/><line id="line62" x1="21" x2="-3" y1="2" y2="2" class="st4"/><line id="line64" x1="21" x2="-3" y1="3" y2="3" class="st4"/><line id="line66" x1="21" x2="-3" y1="4" y2="4" class="st4"/><line id="line68" x1="21" x2="-3" y1="5" y2="5" class="st4"/><line id="line70" x1="21" x2="-3" y1="6" y2="6" class="st4"/><line id="line72" x1="21" x2="-3" y1="7" y2="7" class="st4"/><line id="line74" x1="21" x2="-3" y1="8" y2="8" class="st4"/><line id="line76" x1="21" x2="-3" y1="9" y2="9" class="st4"/><line id="line78" x1="21" x2="-3" y1="10" y2="10" class="st4"/><line id="line80" x1="21" x2="-3" y1="11" y2="11" class="st4"/><line id="line82" x1="21" x2="-3" y1="12" y2="12" class="st4"/><line id="line84" x1="21" x2="-3" y1="13" y2="13" class="st4"/><line id="line86" x1="21" x2="-3" y1="14" y2="14" class="st4"/><line id="line88" x1="21" x2="-3" y1="15" y2="15" class="st4"/><line id="line90" x1="21" x2="-3" y1="16" y2="16" class="st4"/><line id="line92" x1="21" x2="-3" y1="17" y2="17" class="st4"/><line id="line94" x1="21" x2="-3" y1="18" y2="18" class="st4"/><line id="line96" x1="21" x2="-3" y1="19" y2="19" class="st4"/><line id="line98" x1="21" x2="-3" y1="20" y2="20" class="st4"/><rect id="rect100" width="24" height="24" x="-3" y="-3" class="st5"/></g><line id="line104" x1="-3" x2="21" y1="-3" y2="21" class="st6"/><line id="line106" x1="21" x2="-3" y1="-3" y2="21" class="st6"/><line id="line108" x1="-3" x2="21" y1="9" y2="9" class="st6"/><line id="line110" x1="-3" x2="21" y1="3" y2="3" class="st6"/><line id="line112" x1="-3" x2="21" y1="14" y2="14" class="st6"/><circle id="circle114" cx="9" cy="9" r="10" class="st6"/><line id="line116" x1="15" x2="15" y1="-3" y2="21" class="st6"/><line id="line118" x1="3" x2="3" y1="-3" y2="21" class="st6"/><line id="line120" x1="9" x2="9" y1="-3" y2="21" class="st6"/></g><g id="g152"><g style="fill:#4c6a8d;fill-opacity:1" id="g146" class="st7"><text id="text1001" x=".381" y="12.89" xml:space="preserve" style="font-style:normal;font-weight:400;font-size:17.33333397px;line-height:1.25;font-family:sans-serif;letter-spacing:0;word-spacing:0;fill:#4c6a8d;fill-opacity:1;stroke:none"><tspan style="font-style:normal;font-variant:normal;font-weight:700;font-stretch:normal;font-size:10.66666698px;font-family:Arial;-inkscape-font-specification:'Arial, Bold';font-variant-ligatures:normal;font-variant-caps:normal;font-variant-numeric:normal;font-feature-settings:normal;text-align:start;writing-mode:lr-tb;text-anchor:start;fill:#fff;fill-opacity:1" id="tspan999" x=".381" y="12.89">IQ+</tspan></text></g></g></svg>